<?xml version="1.0" encoding="UTF-8"?><svg id="a" xmlns="http://www.w3.org/2000/svg" xmlns:xlink="http://www.w3.org/1999/xlink" viewBox="0 0 178 52"><defs><clipPath id="b"><rect width="178" height="52" style="fill:none;"/></clipPath></defs><g style="clip-path:url(#b);"><path d="M41.3,16.47v28.84c0,1.7-.66,3.32-1.85,4.52-1.19,1.2-2.8,1.88-4.48,1.88H6.35c-.83,0-1.66-.17-2.43-.49-.77-.32-1.47-.79-2.06-1.39-.59-.59-1.06-1.3-1.38-2.08-.32-.78-.48-1.61-.48-2.45v-28.84c0-1.7.67-3.33,1.86-4.53,1.19-1.2,2.81-1.88,4.49-1.88h.87c.28.01.55.14.74.34.19.21.3.48.3.76.06,3.27,1.39,6.39,3.71,8.68,2.32,2.29,5.43,3.57,8.67,3.57s6.36-1.28,8.67-3.57c2.32-2.29,3.65-5.41,3.71-8.68,0-.28.11-.56.3-.76.19-.21.46-.33.74-.34h.9c1.68,0,3.29.68,4.48,1.88,1.19,1.2,1.85,2.83,1.85,4.52Z" style="fill:#61c1d0;"/><path d="M29.26,39.82c0,.15-.04.3-.12.42l-.06.08c-.11.14-.22.28-.34.42-.32.38-.67.74-1.04,1.07-1.09.96-2.36,1.69-3.74,2.15-1.38.45-2.83.61-4.28.48-1.44-.14-2.84-.57-4.12-1.26-1.27-.7-2.39-1.65-3.28-2.8l-.03-.04-.07-.09c-.09-.12-.14-.27-.14-.42,0-.14.04-.28.12-.4.08-.12.19-.21.33-.25.13-.05.28-.06.41-.02.14.04.26.11.35.22.26.31.55.6.85.87,1.81,1.57,4.13,2.42,6.51,2.37h.08c2.38.03,4.69-.81,6.5-2.37.18-.16.36-.34.53-.52.09-.09.17-.18.26-.28l.03-.03.03-.04c.06-.08.14-.14.23-.18s.19-.06.29-.06c.18,0,.36.07.49.2.13.13.2.3.21.49Z" style="fill:#fff;"/><path d="M15.05,35.2c-4.09,0-4.09-6.33,0-6.33s4.12,6.33,0,6.33Z" style="fill:#fff;"/><path d="M26.22,35.2c-4.09,0-4.09-6.33,0-6.33s4.12,6.33,0,6.33Z" style="fill:#fff;"/><path d="M20.65.45c-2.1,0-4.16.63-5.9,1.81-1.75,1.18-3.11,2.85-3.91,4.81-.8,1.96-1.01,4.11-.6,6.19.41,2.08,1.42,3.99,2.91,5.49,1.49,1.5,3.38,2.52,5.44,2.93,2.06.41,4.2.2,6.14-.61,1.94-.81,3.6-2.18,4.77-3.95,1.17-1.76,1.79-3.83,1.79-5.95,0-2.84-1.12-5.56-3.12-7.57-1.99-2.01-4.69-3.14-7.51-3.14Z" style="fill:#61c1d0;"/><path d="M27.69,9.39v.27c-.03.95-.33,1.87-.85,2.67-.06.1-.13.19-.19.28-1.4,1.99-3.2,3.65-5.29,4.87l-.13.07c-.18.09-.38.14-.58.14-.2,0-.39-.04-.56-.14l-.14-.08c-2.09-1.22-3.89-2.88-5.28-4.86-.05-.07-.11-.15-.16-.23-.51-.75-.81-1.63-.87-2.54v-.43c0-.77.23-1.52.66-2.15.43-.64,1.03-1.13,1.74-1.41.45-.18.94-.28,1.43-.28.54,0,1.07.11,1.56.33.49.22.93.54,1.29.95l.03.03s.1.08.16.11c.06.02.12.04.19.04.07,0,.13-.01.2-.04.06-.03.12-.07.16-.12l.03-.03c.52-.58,1.19-.98,1.94-1.16.75-.18,1.53-.13,2.25.15.72.28,1.34.77,1.78,1.4.44.64.68,1.39.68,2.17h-.01Z" style="fill:#d53e36;"/><path d="M22.59,10.46h-.97v-.97c0-.13,0-.27-.05-.4-.04-.13-.11-.24-.21-.34-.09-.1-.2-.18-.32-.23-.12-.05-.25-.08-.39-.08s-.27.03-.39.08c-.12.05-.23.13-.32.23-.09.1-.16.21-.21.34-.04.13-.06.26-.05.4v.98h-.97c-.25.02-.48.13-.64.31-.17.18-.26.42-.26.67s.09.49.26.67c.17.18.4.29.64.31h.97v.98c0,.13,0,.27.05.4.04.13.11.24.21.34.09.1.2.18.32.23.12.05.25.08.39.08s.27-.03.39-.08c.12-.05.23-.13.32-.23.09-.1.16-.21.21-.34.04-.13.06-.26.05-.4v-.99h.97c.25-.02.48-.13.64-.31.17-.18.26-.42.26-.67s-.09-.49-.26-.67c-.17-.18-.4-.29-.64-.31Z" style="fill:#fff;"/><path d="M55.64,38.28l-.98,1.24h-.13l-.95-1.25v2.26h-.71v-3.22h.81l.92,1.23.93-1.23h.8v3.2h-.71v-2.23Z" style="fill:#61c1d0;"/><path d="M60.75,40.5h-2.42v-3.2h2.35v.66h-1.66v.61h1.56v.63h-1.56v.64h1.73v.66Z" style="fill:#61c1d0;"/><path d="M63.88,37.3c.21-.02.42,0,.62.08.2.07.38.19.53.34.15.15.27.33.34.53.07.2.1.42.09.63.02.22-.01.43-.08.63-.07.2-.19.39-.34.54-.15.15-.33.27-.53.35-.2.08-.41.11-.63.1h-1.3v-3.21h1.3ZM63.28,39.84h.6c.13,0,.25,0,.37-.06.12-.05.22-.12.31-.21.09-.09.15-.21.19-.33.04-.12.05-.25.03-.38.01-.12,0-.24-.05-.36-.04-.11-.11-.22-.19-.31-.09-.09-.19-.15-.3-.19-.11-.04-.24-.06-.36-.05h-.6v1.88Z" style="fill:#61c1d0;"/><path d="M67.25,40.5v-3.2h.7v3.2h-.7Z" style="fill:#61c1d0;"/><path d="M72.68,40.11c-.16.15-.36.27-.57.35-.21.08-.43.11-.66.1-.22.02-.45,0-.66-.08-.21-.07-.41-.2-.57-.35-.16-.16-.29-.35-.37-.56-.08-.21-.11-.44-.1-.67,0-.34.1-.66.29-.94.19-.28.45-.49.76-.62.31-.13.65-.16.97-.09.33.07.62.23.86.47l-.45.45c-.2-.18-.46-.27-.72-.27-.13,0-.27.02-.39.07-.12.05-.24.13-.33.22-.09.1-.17.21-.21.34s-.07.26-.06.4c0,.13,0,.27.06.39.05.13.12.24.21.33.09.09.21.17.33.21s.26.07.39.06c.29,0,.56-.11.78-.31l.44.48Z" style="fill:#61c1d0;"/><path d="M74.37,40.5v-3.2h.7v3.2h-.7Z" style="fill:#61c1d0;"/><path d="M79.27,39.38l-.04-1v-1.08h.71v3.2h-.61l-1.58-2.07.03,1.05v1h-.71v-3.18h.61l1.6,2.08Z" style="fill:#61c1d0;"/><path d="M84.16,39.95h-1.63l-.23.55h-.76l1.4-3.2h.77l1.43,3.2h-.77l-.22-.55ZM83.35,38.02l-.55,1.32h1.09l-.55-1.32Z" style="fill:#61c1d0;"/><path d="M87.17,40.96h-.35l.07-.45c-.07,0-.13-.03-.18-.08-.05-.05-.07-.12-.07-.19.01-.09.05-.17.12-.24.07-.06.15-.09.25-.09s.18.03.25.09c.07.06.11.14.12.24-.03.25-.1.49-.21.72Z" style="fill:#61c1d0;"/><path d="M93.11,40.58c-.33-.01-.64-.12-.91-.31-.27-.19-.47-.45-.59-.76-.12-.31-.14-.64-.08-.96.07-.32.23-.62.46-.85.23-.23.53-.39.85-.45.32-.06.65-.03.95.1.3.13.56.34.74.61.18.27.28.59.28.92.01.23-.02.46-.1.67-.08.21-.21.41-.37.57-.16.16-.36.28-.57.36s-.44.11-.67.09ZM93.11,37.87c-.13,0-.27.02-.39.07-.12.05-.24.13-.33.22-.1.1-.17.21-.22.33s-.07.26-.07.4c0,.2.06.4.18.57.11.17.27.3.46.38.19.08.39.1.59.05.2-.04.38-.14.52-.29.14-.14.24-.33.28-.53.04-.2.02-.41-.06-.59-.08-.19-.21-.35-.38-.46-.17-.11-.37-.17-.57-.17v.02Z" style="fill:#61c1d0;"/><path d="M97.93,37.3c.21-.02.42.01.62.08.2.07.38.19.53.34.15.15.27.33.34.53.07.2.1.41.09.63.02.21-.01.43-.08.63-.07.2-.19.39-.34.54-.15.15-.33.27-.53.35-.2.08-.41.11-.63.1h-1.3v-3.21h1.3ZM97.33,39.84h.6c.13,0,.25,0,.37-.06.12-.05.22-.12.31-.21.09-.09.15-.21.19-.33.04-.12.05-.25.03-.38.01-.12,0-.24-.05-.36-.04-.11-.11-.22-.19-.31-.09-.09-.19-.15-.3-.19s-.24-.06-.36-.05h-.6v1.88Z" style="fill:#61c1d0;"/><path d="M102.85,40.58c-.33-.01-.64-.12-.91-.31-.27-.19-.47-.45-.59-.76-.12-.31-.14-.64-.07-.96s.23-.62.46-.85c.23-.23.53-.39.85-.45.32-.06.65-.03.95.1.3.13.56.34.74.61s.28.59.28.92c.01.23-.02.46-.1.67-.08.21-.21.41-.37.57-.16.16-.36.28-.57.36-.21.08-.44.11-.67.09ZM102.85,37.87c-.14,0-.27.02-.4.07s-.24.13-.33.23c-.1.1-.17.21-.22.34-.05.13-.07.26-.07.4,0,.2.06.4.18.57.11.17.27.3.46.38.19.08.39.1.59.05.2-.04.38-.14.52-.29.14-.15.24-.33.28-.53.04-.2.02-.41-.06-.59-.08-.19-.21-.35-.38-.46-.17-.11-.37-.17-.57-.17Z" style="fill:#61c1d0;"/><path d="M108.57,39.38l-.07-1v-1.08h.71v3.2h-.61l-1.56-2.07.03,1.05v1h-.72v-3.18h.61l1.6,2.08Z" style="fill:#61c1d0;"/><path d="M111.91,37.93h-.97v-.63h2.64v.63h-.97v2.57h-.7v-2.57Z" style="fill:#61c1d0;"/><path d="M116.76,40.58c-.33-.01-.64-.12-.91-.31-.27-.19-.47-.45-.59-.76-.12-.31-.14-.64-.08-.96s.23-.62.46-.85c.23-.23.53-.39.85-.45.32-.06.65-.03.95.1.3.13.56.34.74.61s.28.59.28.92c.01.23-.02.46-.1.67s-.21.41-.37.57c-.16.16-.36.28-.57.36-.21.08-.44.11-.67.09ZM116.76,37.87c-.14,0-.27.02-.4.07s-.24.13-.33.23c-.1.1-.17.21-.22.34-.05.13-.07.26-.07.4,0,.2.06.4.18.57.11.17.27.3.46.38.19.08.39.1.59.05.2-.04.38-.14.52-.29.14-.15.24-.33.28-.53.04-.2.02-.41-.06-.59-.08-.19-.21-.35-.38-.46-.17-.11-.37-.17-.57-.17Z" style="fill:#61c1d0;"/><path d="M120.98,37.3v2.55h1.59v.66h-2.3v-3.2h.71Z" style="fill:#61c1d0;"/><path d="M125.75,40.58c-.33-.01-.64-.12-.91-.31-.27-.19-.47-.45-.59-.76-.12-.31-.14-.64-.07-.96s.23-.62.46-.85c.23-.23.53-.39.85-.45.32-.06.65-.03.95.1.3.13.56.34.74.61.18.27.28.59.28.92.01.23-.02.46-.1.67s-.21.41-.37.57c-.16.16-.36.28-.57.36-.21.08-.44.11-.67.09ZM125.75,37.87c-.14,0-.27.02-.4.07-.12.05-.24.13-.33.23-.1.1-.17.21-.22.34-.05.13-.07.26-.07.4,0,.2.06.4.18.57.11.17.27.3.46.38.19.08.39.1.59.05.2-.04.38-.14.52-.29.14-.15.24-.33.28-.53.04-.2.02-.41-.06-.59-.08-.19-.21-.35-.38-.46-.17-.11-.37-.17-.57-.17Z" style="fill:#61c1d0;"/><path d="M131.52,38.14c-.21-.18-.47-.28-.74-.28-.14-.01-.27,0-.4.06s-.24.12-.34.22c-.1.1-.17.22-.21.35-.04.13-.06.27-.05.41,0,.14,0,.27.06.4.05.13.12.24.21.34.09.1.21.17.33.22.13.05.26.07.4.07.24,0,.49-.07.68-.23v-.49h-.76v-.6h1.37v1.4c-.15.2-.35.36-.57.46-.23.1-.47.15-.72.13-.23.01-.46-.02-.67-.1-.21-.08-.41-.2-.58-.36-.17-.16-.3-.35-.39-.56-.09-.21-.14-.44-.14-.67s.05-.46.14-.67c.09-.21.22-.4.39-.56.17-.16.36-.28.58-.36.21-.08.44-.11.67-.1.22,0,.44.03.65.12.2.09.39.21.54.38l-.43.44Z" style="fill:#61c1d0;"/><path d="M133.9,40.5v-3.2h.7v3.2h-.7Z" style="fill:#61c1d0;"/><path d="M138.83,39.95h-1.63l-.23.55h-.76l1.44-3.2h.77l1.42,3.2h-.77l-.25-.55ZM138.02,38.02l-.55,1.32h1.09l-.55-1.32Z" style="fill:#61c1d0;"/><path d="M146.06,40.5h-2.42v-3.2h2.35v.66h-1.66v.61h1.57v.63h-1.57v.64h1.73v.66Z" style="fill:#61c1d0;"/><path d="M152.65,40.5h-2.42v-3.2h2.35v.66h-1.66v.61h1.57v.63h-1.57v.64h1.72v.66Z" style="fill:#61c1d0;"/><path d="M156.43,37.3h.78v.03l-1.07,1.56,1.09,1.59h-.79l-.75-1.13-.74,1.13h-.78l1.08-1.59-1.06-1.56v-.03h.78l.74,1.14.74-1.13Z" style="fill:#61c1d0;"/><path d="M161.13,39.95h-1.63l-.23.55h-.76l1.43-3.2h.77l1.42,3.2h-.76l-.23-.55ZM160.32,38.02l-.55,1.32h1.09l-.54-1.32Z" style="fill:#61c1d0;"/><path d="M166.49,38.28l-.98,1.24h-.13l-.95-1.25v2.26h-.71v-3.22h.82l.93,1.23.93-1.23h.8v3.2h-.71v-2.23Z" style="fill:#61c1d0;"/><path d="M171.6,40.5h-2.42v-3.2h2.35v.66h-1.66v.61h1.56v.63h-1.56v.64h1.73v.66Z" style="fill:#61c1d0;"/><path d="M175.31,38.07c-.2-.18-.46-.28-.74-.27-.31,0-.56.13-.56.35,0,.29.27.35.68.38.63.05,1.22.3,1.22,1.04s-.65,1.02-1.35,1.03c-.27.02-.54-.03-.78-.15-.24-.11-.45-.29-.61-.51l.42-.45c.12.14.27.26.44.33.17.08.35.12.54.12.38,0,.64-.15.64-.38s-.21-.39-.64-.45c-.67-.07-1.27-.24-1.26-.99,0-.64.6-.98,1.26-.98.22-.02.45.02.65.1.21.09.39.22.53.39l-.43.42Z" style="fill:#61c1d0;"/><path d="M60.31,21.55h3.3c.05,0,.1.01.15.03.05.02.09.05.13.09.04.04.06.08.08.13.02.05.03.1.03.15v10.78c0,.1-.04.2-.11.28-.07.07-.17.12-.28.12h-3.22c-.09,0-.18-.03-.25-.1-.07-.06-.12-.15-.13-.24l-.02-.16c-.01-.07-.04-.13-.08-.19-.04-.05-.1-.1-.16-.12-.06-.03-.13-.03-.2-.02-.07.01-.13.04-.18.08-.37.3-.8.53-1.26.67-.65.21-1.33.31-2.01.28-.78-.03-1.54-.22-2.24-.55-.63-.3-1.19-.73-1.65-1.27-.45-.54-.8-1.17-1.01-1.85-.24-.75-.35-1.54-.35-2.33,0-.81.13-1.62.39-2.39.24-.71.63-1.35,1.13-1.91.49-.54,1.09-.98,1.76-1.28.72-.31,1.5-.47,2.29-.45.71-.02,1.42.11,2.07.4.29.13.55.31.79.52.05.05.12.08.18.09.07.01.14,0,.21-.01s.13-.06.17-.12c.05-.05.08-.12.09-.19v-.1c.01-.1.06-.19.13-.25.07-.06.17-.1.27-.1ZM57.39,24.78c-.3,0-.6.05-.89.16-.28.11-.54.28-.75.5-.23.25-.41.55-.52.87-.11.32-.16.67-.14,1.01-.02.34.02.68.14,1.01.11.32.29.62.53.87.22.21.47.38.75.49.28.11.58.16.88.15.33,0,.67-.06.97-.2.29-.13.54-.31.75-.55.21-.24.37-.51.48-.81.11-.31.16-.64.16-.97.03-.68-.18-1.34-.61-1.86-.23-.23-.5-.42-.8-.53-.3-.12-.63-.17-.95-.15Z" style="fill:#61c1d0;"/><path d="M73.4,33.11c-.05,0-.1,0-.15-.03-.05-.02-.09-.05-.13-.08-.04-.04-.07-.08-.09-.13-.02-.05-.03-.1-.03-.15v-6.04c.05-.49-.06-.97-.31-1.39-.11-.13-.25-.23-.4-.3-.16-.07-.32-.1-.49-.08-.38.01-.74.18-1.01.45-.17.19-.31.41-.39.65-.09.24-.12.5-.11.75v5.96c0,.05-.01.1-.03.15-.02.05-.05.09-.08.13-.04.04-.08.07-.13.09-.05.02-.1.03-.15.03h-3.47c-.1,0-.2-.04-.28-.12-.07-.07-.11-.17-.11-.28v-10.78c0-.05,0-.1.03-.15.02-.05.05-.09.08-.13.04-.04.08-.07.13-.09.05-.02.1-.03.15-.03h2.9c.09,0,.17.03.24.09.07.05.12.13.14.22l.05.22c.01.07.05.13.09.18.05.05.1.09.17.11.06.02.13.02.2,0s.13-.05.18-.09c.28-.25.6-.46.95-.61.55-.24,1.15-.36,1.75-.35.57,0,1.14.15,1.65.42.37.19.69.46.94.8.03.05.08.08.13.11.05.03.1.04.16.05.06,0,.11,0,.17-.02.05-.02.1-.05.14-.09.38-.39.84-.7,1.35-.9.68-.27,1.41-.4,2.14-.39.59,0,1.17.1,1.73.31.53.2,1.01.52,1.39.94.43.49.74,1.06.93,1.68.24.8.35,1.62.34,2.46v6.05c0,.1-.04.2-.11.28-.07.07-.17.12-.28.12h-3.5c-.1,0-.2-.04-.28-.12-.07-.07-.11-.17-.11-.28v-6.04c.04-.47-.09-.93-.36-1.31-.1-.12-.23-.22-.37-.29-.14-.07-.3-.11-.45-.11-.37,0-.73.15-1.01.4-.17.18-.31.39-.39.62s-.11.48-.09.73v6c0,.1-.04.2-.11.28-.07.07-.17.12-.28.12h-3.4Z" style="fill:#61c1d0;"/><path d="M91.97,21.29c.83,0,1.66.12,2.46.35.76.22,1.47.6,2.09,1.1.61.52,1.11,1.17,1.45,1.9.38.85.57,1.78.55,2.71.02.94-.17,1.87-.57,2.71-.35.73-.87,1.37-1.5,1.88-.62.49-1.34.86-2.1,1.09-.77.23-1.57.35-2.38.35-.82,0-1.63-.12-2.41-.35-.76-.22-1.48-.59-2.1-1.09-.62-.51-1.13-1.15-1.48-1.88-.39-.85-.58-1.78-.56-2.71-.03-.95.16-1.9.56-2.76.35-.73.85-1.37,1.48-1.88.62-.5,1.33-.86,2.09-1.08.79-.23,1.61-.34,2.43-.34ZM91.97,29.88c.32.02.65-.04.95-.17.3-.13.57-.32.79-.56.43-.49.66-1.13.64-1.78,0-.32-.05-.64-.16-.94-.1-.3-.25-.57-.45-.81-.2-.24-.46-.43-.74-.56-.32-.14-.66-.21-1-.21s-.68.07-1,.21c-.28.13-.53.32-.74.56-.2.24-.35.51-.45.81-.11.3-.16.62-.16.94-.01.64.21,1.27.61,1.76.22.24.48.43.78.55.3.12.62.18.94.16v.04Z" style="fill:#61c1d0;"/><path d="M103.69,21.86v.09c.01.07.05.14.09.19.05.05.11.09.18.11.07.02.14.02.21,0s.13-.05.18-.1c.21-.22.45-.4.72-.53.49-.24,1.03-.36,1.58-.36.57,0,1.14.1,1.67.32.41.16.79.4,1.12.7.07.06.11.14.13.23.02.09,0,.18-.04.26l-1.35,2.46s-.06.09-.11.12c-.04.03-.09.06-.14.07-.05.01-.11.01-.16,0-.05,0-.1-.03-.15-.06-.19-.13-.4-.24-.62-.31-.31-.1-.63-.15-.96-.14-.51-.01-1.01.17-1.4.52-.21.22-.37.48-.47.77-.1.29-.14.59-.11.89v5.62c0,.1-.04.2-.11.28-.07.07-.17.12-.28.12h-3.49c-.1,0-.2-.04-.28-.12-.07-.07-.11-.17-.11-.28v-10.78c0-.05,0-.1.03-.15.02-.05.05-.09.08-.13.04-.04.08-.07.13-.09.05-.02.1-.03.15-.03h3.14c.09,0,.17.04.24.09.07.06.11.14.13.22Z" style="fill:#61c1d0;"/><path d="M111.79,29.17c.02-.05.05-.1.09-.13s.09-.06.14-.08c.05-.02.11-.02.16-.02.05,0,.11.02.15.05.28.17.57.32.88.45.36.16.74.3,1.12.4.31.08.62.13.94.16l.78.06c.77,0,1.16-.19,1.16-.57s-.4-.57-1.21-.63c-.57-.02-1.14-.09-1.7-.23-.56-.12-1.1-.34-1.59-.64-.47-.29-.87-.69-1.17-1.16-.3-.54-.45-1.15-.45-1.77s.16-1.23.45-1.77c.3-.48.7-.88,1.18-1.17.52-.31,1.09-.54,1.68-.66.65-.13,1.31-.2,1.97-.2.89,0,1.77.13,2.62.39.61.18,1.18.44,1.72.78.05.03.08.07.12.11.03.04.05.09.06.15.01.05.01.11,0,.16-.01.05-.03.1-.06.15l-1.39,1.97c-.05.08-.13.13-.22.15-.09.02-.18.01-.27-.03l-.29-.13c-.24-.1-.49-.18-.74-.24-.26-.06-.53-.11-.8-.14-.25-.03-.5-.04-.76-.05-.25,0-.5.03-.74.12-.09.04-.16.1-.22.18-.05.08-.07.18-.07.27.01.13.07.26.17.35.2.16.44.23.69.21.62.02,1.23.08,1.83.2.58.1,1.15.29,1.67.57.5.27.93.67,1.26,1.14.34.56.51,1.21.49,1.87.01.63-.14,1.26-.45,1.81-.29.5-.7.92-1.18,1.22-.53.32-1.1.55-1.71.68-.66.14-1.33.21-2,.21-.51,0-1.02-.04-1.52-.1-.51-.07-1.01-.17-1.51-.29-.47-.11-.92-.26-1.36-.44-.29-.13-.57-.28-.85-.45-.08-.05-.14-.13-.17-.22-.03-.09-.02-.19.02-.28l1.08-2.43Z" style="fill:#d53e36;"/><path d="M132.03,21.55h3.3c.05,0,.1.01.15.03.05.02.09.05.13.09.04.04.07.08.08.13.02.05.03.1.03.15v10.78c0,.1-.04.2-.11.28-.07.07-.17.12-.28.12h-3.22c-.09,0-.18-.03-.26-.1-.07-.06-.12-.15-.13-.24l-.03-.16c0-.07-.04-.13-.08-.19-.04-.05-.1-.1-.16-.12-.06-.03-.13-.03-.2-.02-.07.01-.13.04-.18.08-.38.3-.81.53-1.26.67-.65.21-1.32.31-2,.28-.78-.03-1.54-.22-2.24-.55-.63-.3-1.19-.73-1.65-1.27-.45-.54-.8-1.17-1.01-1.85-.24-.75-.36-1.54-.35-2.33,0-.81.13-1.62.39-2.39.25-.71.63-1.35,1.12-1.91.49-.54,1.09-.98,1.76-1.28.72-.31,1.5-.47,2.29-.45.71-.02,1.42.11,2.07.4.28.13.55.31.79.52.05.05.12.08.18.1.07.01.14.01.21-.01.07-.02.13-.06.17-.12.05-.05.08-.12.09-.19v-.1c.01-.1.06-.19.13-.25.07-.06.17-.1.27-.1ZM129.1,24.78c-.3,0-.61.05-.89.16-.28.11-.54.28-.75.5-.23.25-.41.55-.52.87s-.16.67-.14,1.01c-.02.34.02.68.14,1.01.11.32.29.62.52.87.22.21.47.38.75.49.28.11.58.16.88.15.33,0,.67-.06.97-.2.29-.13.54-.31.75-.55.21-.24.37-.51.47-.81.11-.31.17-.64.17-.97.04-.68-.19-1.34-.62-1.86-.23-.23-.5-.42-.8-.53-.3-.12-.63-.17-.95-.15Z" style="fill:#d53e36;"/><path d="M141.57,21.55c.12,0,.23.05.32.13.08.08.13.2.13.32v5.94c0,.31.04.61.14.9.08.22.2.42.36.6.14.15.31.27.51.33.19.06.39.09.59.09.49,0,.97-.18,1.35-.5.22-.21.38-.47.49-.76.1-.29.14-.59.11-.9v-5.71c0-.12.05-.23.13-.32.08-.08.2-.13.32-.13h3.32c.12,0,.23.05.32.13.08.08.13.2.13.32v10.65c0,.12-.05.23-.13.32s-.2.13-.32.13h-2.91c-.11,0-.21-.04-.3-.11-.08-.07-.14-.17-.15-.28-.01-.08-.04-.16-.09-.22-.05-.06-.11-.11-.19-.14-.07-.03-.16-.04-.24-.02-.08.01-.15.05-.21.1-.34.27-.72.48-1.12.63-.61.22-1.25.33-1.89.33-.58,0-1.16-.09-1.72-.27-.54-.18-1.03-.49-1.43-.9-.44-.48-.78-1.05-.97-1.67-.26-.84-.38-1.71-.36-2.59v-5.96c0-.12.05-.23.13-.32.08-.08.2-.13.32-.13h3.37Z" style="fill:#d53e36;"/><path d="M147.78,16.63s-.04-.06-.08-.08c-.03-.02-.07-.03-.11-.03h-3.59c-.09,0-.18.02-.26.07-.08.05-.14.12-.18.21l-1.43,3.04s-.02.07-.02.1c0,.04.01.07.03.1.02.03.04.06.08.07.03.02.07.03.1.02h3c.08,0,.16-.02.23-.05.07-.04.13-.09.18-.15l2.06-3.09s.03-.07.03-.11c0-.04-.01-.08-.03-.11Z" style="fill:#d53e36;"/><path d="M160.25,16.52h3.49c.1,0,.2.04.27.12.07.07.12.17.12.28v15.83c0,.1-.04.2-.12.28-.07.07-.17.12-.27.12h-3.08c-.09,0-.18-.03-.25-.1s-.12-.15-.13-.24v-.16c-.01-.07-.04-.13-.08-.19-.04-.05-.1-.1-.16-.12-.06-.03-.13-.03-.2-.02-.07.01-.13.04-.18.08-.37.3-.8.53-1.26.67-.65.21-1.33.31-2.01.28-1.68-.11-2.98-.68-3.89-1.7-.91-1.02-1.35-2.45-1.35-4.3-.01-.83.12-1.65.39-2.43.24-.71.63-1.35,1.12-1.91.49-.54,1.09-.97,1.76-1.25.72-.31,1.5-.46,2.29-.45.65-.02,1.3.1,1.91.33.23.09.46.21.66.35.06.04.13.06.2.06.07,0,.14-.01.2-.05.06-.03.11-.08.15-.15.04-.06.05-.13.05-.2v-4.74c0-.1.04-.19.1-.27.07-.07.16-.12.25-.13ZM157.65,24.78c-.3,0-.6.05-.88.17-.28.11-.53.28-.74.5-.23.25-.41.55-.52.87-.11.32-.16.67-.14,1.01-.02.34.02.68.14,1.01s.29.62.52.87c.21.21.47.38.75.49.28.11.58.16.88.16.33,0,.66-.07.96-.21.27-.13.51-.31.72-.54.19-.23.35-.48.45-.76.11-.29.16-.6.16-.9,0-.34-.05-.68-.15-1.01-.1-.31-.25-.6-.45-.85-.2-.24-.44-.44-.72-.58-.3-.15-.64-.22-.98-.2Z" style="fill:#d53e36;"/><path d="M171.79,21.25c.95-.01,1.9.15,2.79.49.8.3,1.51.8,2.08,1.44.56.66.95,1.44,1.13,2.29.19.91.19,1.84,0,2.75-.02.09-.07.17-.14.23-.07.06-.16.09-.25.09h-7c-.08,0-.15.02-.22.06-.07.04-.12.1-.15.17-.03.07-.04.15-.03.23.01.08.05.15.1.2.19.18.41.33.65.45.24.12.5.21.77.27.24.06.49.08.74.09.57.01,1.13-.08,1.67-.26.35-.13.69-.29,1.01-.49.08-.05.17-.07.26-.06.09.01.17.06.23.13l1.6,1.81s.06.08.08.13c.02.05.02.1.02.15,0,.05-.02.1-.04.15-.02.05-.06.09-.09.12-.62.52-1.33.93-2.09,1.19-.91.31-1.87.46-2.83.45-.87,0-1.74-.11-2.58-.35-.77-.22-1.49-.58-2.12-1.08-.62-.5-1.12-1.13-1.45-1.86-.37-.85-.56-1.78-.53-2.71-.02-.94.17-1.86.56-2.71.34-.73.84-1.38,1.46-1.89.61-.5,1.31-.87,2.06-1.1.75-.24,1.52-.37,2.31-.38ZM173.37,25.77c.07,0,.14-.02.2-.05.06-.04.11-.09.15-.15.04-.06.05-.13.05-.2,0-.07-.02-.14-.06-.2-.04-.06-.08-.11-.13-.16-.21-.21-.46-.36-.74-.45-.31-.1-.63-.16-.95-.17-.33,0-.65.04-.96.14-.29.09-.56.25-.78.45-.05.05-.1.1-.14.16-.04.06-.07.13-.07.2,0,.07,0,.14.04.21.03.06.08.12.15.15.06.04.13.06.2.06h3.05Z" style="fill:#d53e36;"/></g></svg>